<svg xmlns="http://www.w3.org/2000/svg" version="1.1" width="500px" height="500px" style="shape-rendering:geometricPrecision; text-rendering:geometricPrecision; image-rendering:optimizeQuality; fill-rule:evenodd; clip-rule:evenodd" xmlns:xlink="http://www.w3.org/1999/xlink" transform="rotate(0) scale(1, 1)">
<g><path style="opacity:0.958" fill="#ffffff" d="M 227.5,102.5 C 230.614,103.091 233.114,104.758 235,107.5C 239,114.167 243,120.833 247,127.5C 248.284,134.509 248.451,141.509 247.5,148.5C 222.763,148.398 199.096,153.232 176.5,163C 172.067,165.133 168.567,168.3 166,172.5C 148.505,225.644 156.838,273.977 191,317.5C 198.23,324.386 204.897,331.386 211,338.5C 203.593,345.118 196.093,351.618 188.5,358C 186.635,359.301 184.635,359.635 182.5,359C 175.06,354.558 167.894,349.725 161,344.5C 160.454,341.101 160.787,337.768 162,334.5C 165.568,327.558 167.568,320.225 168,312.5C 165.203,308.701 162.036,305.201 158.5,302C 149.494,302.404 140.494,303.237 131.5,304.5C 128.052,304.995 125.219,303.995 123,301.5C 120.547,294.191 117.713,287.024 114.5,280C 115.083,277.501 116.416,275.501 118.5,274C 124.755,269.622 130.922,265.122 137,260.5C 138.745,254.559 138.745,248.559 137,242.5C 127.816,238.329 118.649,234.163 109.5,230C 108.609,220.099 109.942,210.433 113.5,201C 114.672,200.581 115.672,199.915 116.5,199C 125.857,198.22 135.19,197.22 144.5,196C 150.159,192.04 152.492,186.707 151.5,180C 146.994,173.495 142.494,166.995 138,160.5C 136.813,158.956 136.48,157.289 137,155.5C 143.41,147.42 150.744,140.42 159,134.5C 167.843,138.684 176.676,142.851 185.5,147C 190.67,146.94 195.17,145.107 199,141.5C 199.333,131.833 199.667,122.167 200,112.5C 201.214,110.951 202.714,109.785 204.5,109C 212.372,107.037 220.038,104.871 227.5,102.5 Z"/></g>
<g><path style="opacity:0.882" fill="#ffffff" d="M 97.5,104.5 C 100.822,104.489 102.489,106.155 102.5,109.5C 102.064,112.179 101.564,114.845 101,117.5C 99.5931,122.399 97.4264,126.899 94.5,131C 96.0441,131.29 97.3774,131.956 98.5,133C 96.2043,143.756 91.8709,153.589 85.5,162.5C 84.5962,171.114 82.5962,179.448 79.5,187.5C 82.0677,187.952 83.401,189.452 83.5,192C 82.3388,196.156 80.5055,199.989 78,203.5C 77.3333,213.833 77.3333,224.167 78,234.5C 78.8372,232.649 79.6705,230.816 80.5,229C 81.7839,228.316 82.9505,228.483 84,229.5C 84.2913,234.189 84.2913,238.856 84,243.5C 87.9481,251.984 91.2814,260.651 94,269.5C 94.4828,268.552 94.6495,267.552 94.5,266.5C 97.7845,266.269 100.285,267.603 102,270.5C 102.69,281.567 106.356,291.567 113,300.5C 115.52,306.388 117.853,312.388 120,318.5C 123.562,328.038 123.229,337.371 119,346.5C 115.985,349.683 112.818,352.683 109.5,355.5C 112.423,360.591 115.923,365.258 120,369.5C 120.49,370.793 120.657,372.127 120.5,373.5C 117.482,373.665 114.482,373.498 111.5,373C 108.322,369.13 105.322,365.13 102.5,361C 84.0848,357.71 68.9181,348.877 57,334.5C 45.8241,320.148 37.8241,304.148 33,286.5C 31.8338,283.497 30.1672,280.83 28,278.5C 27.4054,277.101 27.5721,275.768 28.5,274.5C 30.216,274.003 31.8827,273.669 33.5,273.5C 29.7307,265.774 26.564,257.774 24,249.5C 21.9955,245.351 19.8288,241.351 17.5,237.5C 17.7753,235.391 18.942,234.058 21,233.5C 22.9906,236.136 24.9906,238.802 27,241.5C 24.3256,232.437 22.6589,223.103 22,213.5C 20.2711,209.492 18.4377,205.492 16.5,201.5C 17.7277,198.929 19.7277,197.595 22.5,197.5C 22.3118,199.103 22.8118,200.437 24,201.5C 24.6667,193.833 24.6667,186.167 24,178.5C 20.885,174.647 21.0517,171.147 24.5,168C 25.9961,167.493 27.1627,167.993 28,169.5C 29.8883,174.945 32.555,179.945 36,184.5C 35.3858,172.265 36.2191,160.098 38.5,148C 37.55,144.512 37.05,141.012 37,137.5C 39.1308,135.456 41.6308,134.623 44.5,135C 45.7812,139.954 47.4479,144.787 49.5,149.5C 53.2599,137.494 59.9265,127.328 69.5,119C 71.8098,118.503 74.1432,118.337 76.5,118.5C 76.4914,120.308 76.9914,121.975 78,123.5C 83.7331,116.265 90.2331,109.932 97.5,104.5 Z M 90.5,119.5 C 89.7605,128.294 85.7605,135.627 78.5,141.5C 77.2423,138.278 77.7423,135.278 80,132.5C 83.5083,128.136 87.0083,123.803 90.5,119.5 Z M 67.5,132.5 C 69.4434,146.075 66.6101,158.742 59,170.5C 55.6121,156.326 58.4454,143.659 67.5,132.5 Z M 86.5,143.5 C 87.4972,143.47 88.1639,143.97 88.5,145C 83.648,156.185 76.4813,165.685 67,173.5C 70.701,161.786 77.201,151.786 86.5,143.5 Z M 43.5,161.5 C 47.9608,164.16 50.7942,168.16 52,173.5C 52.8758,182.23 52.5425,190.896 51,199.5C 47.5957,194.686 45.2623,189.353 44,183.5C 43.5003,176.174 43.3337,168.841 43.5,161.5 Z M 73.5,184.5 C 73.7678,182.901 73.4345,181.568 72.5,180.5C 73.1217,179.373 73.955,178.373 75,177.5C 75.5881,180.139 75.0881,182.473 73.5,184.5 Z M 72.5,180.5 C 69.7567,183.701 67.7567,187.367 66.5,191.5C 67.5,192.833 68.5,194.167 69.5,195.5C 69,196.5 68.5,197.5 68,198.5C 66.7592,196.579 65.2592,196.246 63.5,197.5C 60.5894,200.912 59.256,204.579 59.5,208.5C 58.4955,209.683 57.6622,211.016 57,212.5C 56.3457,213.696 55.8457,213.696 55.5,212.5C 56.2375,203.121 59.0709,194.455 64,186.5C 66.2787,183.619 69.112,181.619 72.5,180.5 Z M 34.5,195.5 C 36.2292,196.117 37.7292,197.117 39,198.5C 45.8969,206.522 49.2302,215.855 49,226.5C 47.1031,223.873 45.6031,221.039 44.5,218C 42.5911,217.552 41.4244,218.385 41,220.5C 40.6667,220.167 40.3333,219.833 40,219.5C 40.1379,217.51 40.6379,215.51 41.5,213.5C 41.2473,211.044 40.2473,209.044 38.5,207.5C 37.2011,208.09 36.3678,209.09 36,210.5C 34.4053,208.096 34.9053,205.929 37.5,204C 36.1969,201.256 35.1969,198.423 34.5,195.5 Z M 64.5,250.5 C 63.0324,253.278 62.199,256.278 62,259.5C 58.1941,249.474 56.8608,239.141 58,228.5C 58.4379,225.624 59.4379,222.957 61,220.5C 64.7026,217.133 68.036,213.466 71,209.5C 71.6667,215.167 71.6667,220.833 71,226.5C 70.6667,222.167 70.3333,217.833 70,213.5C 67.1296,216.981 66.1296,220.981 67,225.5C 70.2924,226.39 70.9591,228.057 69,230.5C 66.1492,227.672 64.6492,228.338 64.5,232.5C 64.5816,235.093 65.7483,237.093 68,238.5C 68.7738,242.515 68.2738,243.015 66.5,240C 65.2161,239.316 64.0495,239.483 63,240.5C 62.8333,242.167 62.6667,243.833 62.5,245.5C 62.5561,247.64 63.2227,249.306 64.5,250.5 Z M 33.5,228.5 C 43.2142,235.238 50.0475,244.238 54,255.5C 54.5682,258.221 54.9015,260.888 55,263.5C 52.9835,261.316 50.8169,259.316 48.5,257.5C 47.0869,254.339 45.4203,251.339 43.5,248.5C 42.3112,247.571 40.9778,247.238 39.5,247.5C 39.7978,250.336 39.1311,250.836 37.5,249C 39.8555,245.463 39.8555,241.963 37.5,238.5C 36.1667,238.167 34.8333,237.833 33.5,237.5C 34.5767,234.526 34.5767,231.526 33.5,228.5 Z M 79.5,248.5 C 80.0967,248.735 80.4301,249.235 80.5,250C 76.389,256.442 75.5557,263.276 78,270.5C 78.3333,270.833 78.6667,271.167 79,271.5C 81.9861,267.773 83.3195,263.439 83,258.5C 84.2043,260.823 85.0376,263.323 85.5,266C 84.0484,269.679 82.2151,273.179 80,276.5C 79.3058,280.002 79.8058,283.336 81.5,286.5C 83.8579,284.976 85.6912,282.976 87,280.5C 87.1667,281 87.3333,281.5 87.5,282C 84.9685,284.889 82.8019,288.056 81,291.5C 80,295.167 79,298.833 78,302.5C 73.1245,291.999 69.9579,280.999 68.5,269.5C 68.8911,266.041 69.7245,262.707 71,259.5C 74.0726,255.939 76.9059,252.272 79.5,248.5 Z M 35.5,259.5 C 37.0269,259.427 38.0269,260.094 38.5,261.5C 36.9731,261.573 35.9731,260.906 35.5,259.5 Z M 40.5,262.5 C 55.3022,268.068 63.9689,278.734 66.5,294.5C 64.329,292.5 61.9957,290.666 59.5,289C 54.2965,289.78 50.6298,287.947 48.5,283.5C 50.5405,284.519 52.5405,284.519 54.5,283.5C 53.07,280.567 51.07,278.067 48.5,276C 45.3022,275.152 42.4689,273.652 40,271.5C 39.3333,270.833 39.3333,270.167 40,269.5C 41.5553,271.515 43.3886,271.848 45.5,270.5C 44.3228,267.469 42.6562,264.802 40.5,262.5 Z M 34.5,276.5 C 35.9063,276.973 36.573,277.973 36.5,279.5C 35.0937,279.027 34.427,278.027 34.5,276.5 Z M 97.5,288.5 C 97.1905,291.596 96.1905,294.429 94.5,297C 97.5111,305.604 100.344,305.438 103,296.5C 104.544,298.468 105.711,300.635 106.5,303C 103.737,304.756 101.237,306.923 99,309.5C 99.0833,312.119 99.25,314.786 99.5,317.5C 106.841,317.019 109.674,313.352 108,306.5C 112.149,315.89 113.149,325.556 111,335.5C 110.623,336.942 109.79,337.942 108.5,338.5C 108.5,337.167 108.5,335.833 108.5,334.5C 106.167,334.5 103.833,334.5 101.5,334.5C 101.5,337.5 101.5,340.5 101.5,343.5C 93.3754,332.137 88.3754,319.471 86.5,305.5C 87.1212,302.436 87.9546,299.436 89,296.5C 91.5402,294.295 93.7068,291.795 95.5,289C 96.0944,288.536 96.7611,288.369 97.5,288.5 Z M 61.5,296.5 C 65.3232,297.145 68.3232,298.978 70.5,302C 66.9561,301.221 63.9561,299.387 61.5,296.5 Z M 46.5,298.5 C 48.0269,298.427 49.0269,299.094 49.5,300.5C 47.9731,300.573 46.9731,299.906 46.5,298.5 Z M 49.5,300.5 C 61.121,304.902 70.9544,311.902 79,321.5C 83.1914,329.221 87.3581,336.887 91.5,344.5C 88.2324,343.076 85.0657,341.409 82,339.5C 80.6667,340.833 79.3333,340.833 78,339.5C 77.0546,339.905 76.3879,340.572 76,341.5C 73.1563,339.841 70.6563,337.841 68.5,335.5C 80.6505,339.145 81.9839,337.312 72.5,330C 68.5796,328.687 64.5796,327.687 60.5,327C 58.8588,325.871 57.8588,324.371 57.5,322.5C 60.4223,323.649 63.4223,324.649 66.5,325.5C 67.2621,322.79 66.5955,320.29 64.5,318C 59.5314,316.016 54.698,313.849 50,311.5C 49.0181,310.241 48.6848,308.908 49,307.5C 52.5183,311.582 56.685,313.582 61.5,313.5C 58.8359,307.84 54.8359,303.506 49.5,300.5 Z M 104.5,342.5 C 103.779,344.382 102.779,344.715 101.5,343.5C 102.391,342.89 103.391,342.557 104.5,342.5 Z M 92.5,347.5 C 94.337,347.639 94.6704,348.306 93.5,349.5C 92.7025,349.043 92.3691,348.376 92.5,347.5 Z"/></g>
<g><path style="opacity:0.96" fill="#ffffff" d="M 278.5,104.5 C 287.875,106.678 297.208,109.178 306.5,112C 307.931,112.465 309.097,113.299 310,114.5C 310.333,124.833 310.667,135.167 311,145.5C 314.059,149.117 317.892,150.617 322.5,150C 330.833,146.167 339.167,142.333 347.5,138.5C 356.159,144.993 363.659,152.66 370,161.5C 370.667,162.833 370.667,164.167 370,165.5C 364.909,172.68 359.576,179.68 354,186.5C 354.08,191.065 355.58,195.232 358.5,199C 368.926,200.108 379.26,201.775 389.5,204C 390,204.5 390.5,205 391,205.5C 392.129,214.109 393.629,222.609 395.5,231C 394.87,232.892 393.87,234.559 392.5,236C 384.291,239.517 375.958,242.85 367.5,246C 366.299,246.903 365.465,248.069 365,249.5C 364.49,252.898 364.157,256.231 364,259.5C 371.147,266.07 378.48,272.403 386,278.5C 386.402,279.872 386.902,281.205 387.5,282.5C 383.884,290.897 379.884,299.064 375.5,307C 373.5,307.167 371.5,307.333 369.5,307.5C 360.54,305.815 351.54,304.648 342.5,304C 338.331,307.163 335.331,311.163 333.5,316C 335.418,322.258 337.584,328.425 340,334.5C 341.277,338.097 341.61,341.764 341,345.5C 332.936,351.028 324.603,356.028 316,360.5C 307.79,355.458 300.623,349.124 294.5,341.5C 334.185,306.063 350.352,261.73 343,208.5C 341.085,195.345 338.419,182.345 335,169.5C 331.762,164.931 327.595,161.431 322.5,159C 302.886,152.199 282.719,148.365 262,147.5C 261.333,141.167 261.333,134.833 262,128.5C 267.263,120.297 272.763,112.297 278.5,104.5 Z"/></g>
<g><path style="opacity:0.881" fill="#ffffff" d="M 400.5,104.5 C 409.634,108.959 417.301,115.292 423.5,123.5C 425.387,117.816 428.72,116.983 433.5,121C 442.54,129.038 448.706,138.871 452,150.5C 453.693,145.189 455.193,139.855 456.5,134.5C 461.037,134.417 463.37,136.584 463.5,141C 461.987,147.064 462.487,152.898 465,158.5C 465.605,167.245 465.605,175.911 465,184.5C 468.484,179.895 471.317,174.895 473.5,169.5C 477.158,167.676 478.825,168.843 478.5,173C 477.804,183.594 476.971,194.094 476,204.5C 477.044,203.377 477.71,202.044 478,200.5C 480.864,197.674 483.031,198.174 484.5,202C 482.787,205.925 480.954,209.758 479,213.5C 479.195,222.155 477.695,230.489 474.5,238.5C 474.667,239.167 474.833,239.833 475,240.5C 476.408,238.083 478.242,236.083 480.5,234.5C 482.272,235.27 483.272,236.603 483.5,238.5C 479.092,245.201 475.925,252.534 474,260.5C 471.693,265.753 469.193,270.92 466.5,276C 466.667,276.5 466.833,277 467,277.5C 469.154,272.641 471.321,272.475 473.5,277C 468.481,284.872 464.981,293.372 463,302.5C 454.945,322.869 442.111,339.369 424.5,352C 416.259,356.391 407.593,359.558 398.5,361.5C 395.691,365.477 392.691,369.31 389.5,373C 386.518,373.498 383.518,373.665 380.5,373.5C 383.889,367.586 387.556,361.753 391.5,356C 385.76,352.258 381.926,347.091 380,340.5C 379.212,333.444 379.545,326.444 381,319.5C 385.633,305.965 391.633,292.965 399,280.5C 399.333,277.167 399.667,273.833 400,270.5C 401.351,268.981 402.851,267.648 404.5,266.5C 405.799,267.09 406.632,268.09 407,269.5C 410.135,261.098 413.468,252.765 417,244.5C 417.59,240.703 417.09,237.036 415.5,233.5C 416.331,230.328 418.331,228.662 421.5,228.5C 421.372,230.655 421.872,232.655 423,234.5C 423.667,224.167 423.667,213.833 423,203.5C 421.404,199.969 419.57,196.636 417.5,193.5C 418.141,190.317 419.474,188.317 421.5,187.5C 418.92,179.692 417.086,171.692 416,163.5C 408.769,154.037 404.602,143.37 403.5,131.5C 404.552,131.649 405.552,131.483 406.5,131C 400.466,123.036 398.466,114.203 400.5,104.5 Z M 410.5,121.5 C 417.896,126.697 422.062,133.697 423,142.5C 416.757,136.673 412.591,129.673 410.5,121.5 Z M 433.5,133.5 C 440.351,141.037 443.684,150.037 443.5,160.5C 443.356,164.067 442.523,167.4 441,170.5C 434.516,158.91 432.016,146.576 433.5,133.5 Z M 433.5,172.5 C 423.914,165.573 416.914,156.573 412.5,145.5C 412.833,145.167 413.167,144.833 413.5,144.5C 423.109,151.712 429.775,161.045 433.5,172.5 Z M 455.5,160.5 C 457.926,169.649 458.093,178.982 456,188.5C 454.777,192.615 452.777,196.282 450,199.5C 448.463,191.23 448.13,182.897 449,174.5C 450.921,169.661 453.088,164.994 455.5,160.5 Z M 425.5,178.5 C 427.377,179.659 427.877,181.326 427,183.5C 425.991,181.975 425.491,180.308 425.5,178.5 Z M 429.5,181.5 C 435.571,184.752 439.738,189.752 442,196.5C 443.972,201.687 444.639,207.02 444,212.5C 442.212,210.996 441.712,209.329 442.5,207.5C 440.726,204.285 439.226,200.952 438,197.5C 436.32,196.397 434.82,196.73 433.5,198.5C 432.713,197.758 432.047,196.925 431.5,196C 433.01,194.649 434.01,192.982 434.5,191C 433.21,187.585 431.544,184.418 429.5,181.5 Z M 465.5,195.5 C 466.239,195.369 466.906,195.536 467.5,196C 465.695,198.567 464.362,201.401 463.5,204.5C 464.364,206.197 465.697,207.363 467.5,208C 466.217,211.048 464.551,211.215 462.5,208.5C 459.232,211.563 458.899,214.896 461.5,218.5C 461.192,219.308 460.692,219.975 460,220.5C 459.581,219.328 458.915,218.328 458,217.5C 455.497,220.502 453.497,223.835 452,227.5C 451.743,214.758 456.243,204.091 465.5,195.5 Z M 437.5,251.5 C 438.497,251.53 439.164,251.03 439.5,250C 438.815,247.205 438.315,244.372 438,241.5C 436.846,239.043 435.512,239.043 434,241.5C 433.626,240.584 433.126,239.75 432.5,239C 436.124,236.839 437.291,233.672 436,229.5C 435.329,228.748 434.496,228.414 433.5,228.5C 434.457,224.052 434.791,219.719 434.5,215.5C 439.395,219.287 442.229,224.287 443,230.5C 444.001,240.164 442.667,249.498 439,258.5C 438.56,256.134 438.06,253.801 437.5,251.5 Z M 468.5,227.5 C 468.064,229.746 467.397,231.913 466.5,234C 467.602,236.401 467.769,238.901 467,241.5C 466.71,239.956 466.044,238.623 465,237.5C 463.203,238.927 462.036,240.76 461.5,243C 462.654,245.437 463.154,247.937 463,250.5C 462.667,250.833 462.333,251.167 462,251.5C 461.974,248.895 460.807,247.729 458.5,248C 455.707,251.081 453.54,254.581 452,258.5C 449.815,259.928 447.815,261.595 446,263.5C 448.149,248.211 455.649,236.211 468.5,227.5 Z M 433.5,228.5 C 433.217,229.289 432.717,229.956 432,230.5C 431.472,229.184 431.972,228.517 433.5,228.5 Z M 453.5,229.5 C 453.217,230.289 452.717,230.956 452,231.5C 451.472,230.184 451.972,229.517 453.5,229.5 Z M 423.5,254.5 C 429.73,257.599 432.73,262.765 432.5,270C 431.122,281.68 427.955,292.847 423,303.5C 422.294,296.874 420.127,290.874 416.5,285.5C 417.708,286.234 419.041,286.567 420.5,286.5C 420.59,284.304 420.923,282.137 421.5,280C 419.967,275.106 418.301,270.272 416.5,265.5C 416.667,264.5 416.833,263.5 417,262.5C 421.588,274.885 424.422,274.385 425.5,261C 424.331,258.993 423.665,256.827 423.5,254.5 Z M 464.5,260.5 C 465.254,258.554 466.588,257.721 468.5,258C 467.529,259.481 466.196,260.315 464.5,260.5 Z M 464.5,260.5 C 460.45,263.226 457.45,266.892 455.5,271.5C 457.095,272.434 458.761,272.434 460.5,271.5C 455.342,274.139 450.842,277.805 447,282.5C 446.251,283.635 446.417,284.635 447.5,285.5C 449.456,284.452 451.456,283.952 453.5,284C 451.622,285.543 450.122,287.376 449,289.5C 446.936,288.409 444.769,288.242 442.5,289C 439.669,291.001 437.003,293.167 434.5,295.5C 437.751,277.972 447.751,266.305 464.5,260.5 Z M 415.5,284.5 C 414.883,284.389 414.383,284.056 414,283.5C 413.333,281.167 413.333,278.833 414,276.5C 414.395,279.207 414.895,281.873 415.5,284.5 Z M 395.5,303.5 C 396.38,300.738 397.546,298.071 399,295.5C 398.78,299.248 400.113,302.248 403,304.5C 404.804,302.723 405.637,300.556 405.5,298C 405.023,295.171 404.023,292.505 402.5,290C 402.63,288.941 403.13,288.108 404,287.5C 406.295,290.797 408.962,293.797 412,296.5C 414.917,302.675 415.25,309.008 413,315.5C 409.941,326.284 405.274,336.284 399,345.5C 392.022,341.874 389.022,336.208 390,328.5C 392.951,330.076 396.117,330.743 399.5,330.5C 399.575,327.794 399.908,325.127 400.5,322.5C 397.314,322.105 394.314,321.105 391.5,319.5C 390.808,320.025 390.308,320.692 390,321.5C 390.146,317.041 391.146,312.708 393,308.5C 391.699,315.041 394.533,318.041 401.5,317.5C 402.008,314.824 402.175,312.157 402,309.5C 399.612,307.707 397.446,305.707 395.5,303.5 Z M 453.5,299.5 C 454.172,298.733 455.005,298.066 456,297.5C 456.188,299.061 455.355,299.728 453.5,299.5 Z M 437.5,298.5 C 435.669,300.749 433.336,301.915 430.5,302C 431.803,298.956 434.136,297.789 437.5,298.5 Z M 453.5,299.5 C 453.027,300.906 452.027,301.573 450.5,301.5C 450.973,300.094 451.973,299.427 453.5,299.5 Z M 450.5,301.5 C 448.344,303.841 445.844,305.841 443,307.5C 441.961,309.746 440.794,311.913 439.5,314C 443.983,313.931 447.983,312.431 451.5,309.5C 450.969,311.624 449.635,313.124 447.5,314C 440.46,315.008 435.46,318.675 432.5,325C 436.021,325.691 439.355,325.191 442.5,323.5C 442.205,325.423 441.372,327.09 440,328.5C 432.334,327.653 426.167,330.486 421.5,337C 424.888,337.659 428.221,337.492 431.5,336.5C 429.502,338.6 427.335,340.6 425,342.5C 422.503,340.522 419.669,340.022 416.5,341C 413.953,343.054 411.286,344.887 408.5,346.5C 412.975,338.221 417.475,329.887 422,321.5C 429.738,312.253 439.238,305.586 450.5,301.5 Z M 408.5,346.5 C 408.577,347.75 409.244,348.583 410.5,349C 406.168,351.172 405.501,350.338 408.5,346.5 Z"/></g>
<g><path style="opacity:0.957" fill="#ffffff" d="M 236.5,154.5 C 259.451,153.301 282.118,155.135 304.5,160C 311.024,162.185 317.358,164.852 323.5,168C 328.207,172.106 331.041,177.273 332,183.5C 344.145,224.916 340.145,264.583 320,302.5C 306.828,323.021 289.328,338.855 267.5,350C 263.992,351.669 260.325,352.836 256.5,353.5C 212.273,337.771 183.106,307.438 169,262.5C 162.038,233.099 163.371,204.099 173,175.5C 180.218,169.307 188.384,164.807 197.5,162C 210.494,158.616 223.494,156.116 236.5,154.5 Z M 188.5,181.5 C 205.643,183.782 222.977,183.949 240.5,182C 232.55,197.981 219.55,205.148 201.5,203.5C 196.628,203.578 191.961,202.912 187.5,201.5C 188.276,194.863 188.609,188.196 188.5,181.5 Z M 283.5,181.5 C 284.833,181.5 286.167,181.5 287.5,181.5C 288.142,185.862 286.642,189.195 283,191.5C 282.667,193.167 282.333,194.833 282,196.5C 281.333,215.833 281.333,235.167 282,254.5C 282.058,257.559 283.391,259.892 286,261.5C 286.495,263.473 286.662,265.473 286.5,267.5C 270.161,263.994 260.328,253.994 257,237.5C 256.333,228.833 256.333,220.167 257,211.5C 260.789,196.887 269.622,186.887 283.5,181.5 Z M 294.5,181.5 C 303.257,181.476 310.424,184.81 316,191.5C 320.462,206.376 314.962,212.543 299.5,210C 295.337,207.179 293.837,203.345 295,198.5C 296.733,196.277 298.233,193.944 299.5,191.5C 299.119,189.293 297.786,187.96 295.5,187.5C 294.534,185.604 294.201,183.604 294.5,181.5 Z M 187.5,207.5 C 188.833,207.5 190.167,207.5 191.5,207.5C 191.211,211.106 191.544,214.606 192.5,218C 196.283,217.119 199.95,215.619 203.5,213.5C 204.833,216.167 204.833,218.833 203.5,221.5C 198.828,223.503 194.162,225.503 189.5,227.5C 188.558,227.392 187.725,227.059 187,226.5C 185.028,220.081 185.194,213.747 187.5,207.5 Z M 211.5,212.5 C 234.907,213.401 245.074,225.401 242,248.5C 236.311,261.773 226.144,268.106 211.5,267.5C 210.617,263.055 211.951,259.555 215.5,257C 218.314,246.104 218.147,235.27 215,224.5C 211.899,221.221 210.732,217.221 211.5,212.5 Z M 295.5,217.5 C 316.211,217.043 325.044,227.043 322,247.5C 316.378,260.276 306.545,266.942 292.5,267.5C 292.338,265.473 292.505,263.473 293,261.5C 294.713,260.122 296.047,258.455 297,256.5C 297.667,247.833 297.667,239.167 297,230.5C 295.392,226.646 292.726,225.646 289,227.5C 287.357,225.01 287.524,222.51 289.5,220C 291.723,219.434 293.723,218.6 295.5,217.5 Z M 188.5,237.5 C 204.663,236.983 208.663,243.65 200.5,257.5C 200.719,259.915 202.052,260.915 204.5,260.5C 204.5,262.833 204.5,265.167 204.5,267.5C 196.231,267.054 189.397,263.72 184,257.5C 179.543,249.332 181.043,242.665 188.5,237.5 Z M 254.5,278.5 C 261.266,280.798 267.766,283.798 274,287.5C 274.667,289.833 274.667,292.167 274,294.5C 272.138,303.328 269.972,311.995 267.5,320.5C 267.167,319.167 266.833,317.833 266.5,316.5C 267.731,308.526 268.231,300.526 268,292.5C 263.989,289.886 259.822,287.552 255.5,285.5C 253.385,283.385 253.051,281.051 254.5,278.5 Z M 244.5,284.5 C 251.148,286.655 257.481,289.655 263.5,293.5C 264.584,302.332 263.75,310.998 261,319.5C 260.436,312.421 259.436,305.421 258,298.5C 253.534,296.016 249.201,293.349 245,290.5C 243.668,288.45 243.502,286.45 244.5,284.5 Z M 234.5,291.5 C 241.655,293.488 248.488,296.488 255,300.5C 256.369,307.713 256.536,314.88 255.5,322C 249.968,320.748 244.635,318.581 239.5,315.5C 237.199,307.629 235.532,299.629 234.5,291.5 Z"/></g>
<g><path style="opacity:0.803" fill="#ffffff" d="M 109.5,318.5 C 113.835,326.862 111.168,330.862 101.5,330.5C 101.768,327.881 101.435,325.381 100.5,323C 103.766,321.942 106.766,320.442 109.5,318.5 Z"/></g>
<g><path style="opacity:0.74" fill="#ffffff" d="M 108.5,338.5 C 107.833,338.5 107.5,338.833 107.5,339.5C 106.833,339.5 106.5,339.833 106.5,340.5C 105.833,340.5 105.5,340.833 105.5,341.5C 104.833,341.5 104.5,341.833 104.5,342.5C 103.391,342.557 102.391,342.89 101.5,343.5C 101.5,340.5 101.5,337.5 101.5,334.5C 103.833,334.5 106.167,334.5 108.5,334.5C 108.5,335.833 108.5,337.167 108.5,338.5 Z"/></g>
<g><path style="opacity:0.786" fill="#ffffff" d="M 392.5,334.5 C 394.833,334.5 397.167,334.5 399.5,334.5C 400.741,344.016 398.575,345.35 393,338.5C 392.51,337.207 392.343,335.873 392.5,334.5 Z"/></g>
<g><path style="opacity:0.671" fill="#ffffff" d="M 193.5,369.5 C 194.5,369.5 195.5,369.5 196.5,369.5C 196.547,373.648 194.547,375.148 190.5,374C 191.386,372.385 192.386,370.885 193.5,369.5 Z"/></g>
<g><path style="opacity:0.805" fill="#ffffff" d="M 62.5,376.5 C 66.6463,375.353 70.9796,375.186 75.5,376C 78.5921,380.118 77.9255,383.451 73.5,386C 69.2067,384.744 68.54,385.911 71.5,389.5C 69.3369,391.72 66.8369,392.053 64,390.5C 63.9375,388.04 64.1042,385.54 64.5,383C 64.664,380.456 63.9973,378.29 62.5,376.5 Z M 69.5,379.5 C 72.9571,379.667 73.2904,380.667 70.5,382.5C 69.6143,381.675 69.281,380.675 69.5,379.5 Z"/></g>
<g><path style="opacity:0.815" fill="#ffffff" d="M 78.5,375.5 C 82.8461,375.334 87.1794,375.501 91.5,376C 94.2499,379.012 93.9166,381.679 90.5,384C 92.9535,385.74 94.4535,387.907 95,390.5C 92.2793,391.661 89.9459,390.994 88,388.5C 87.6258,389.416 87.1258,390.25 86.5,391C 84.1667,391.667 81.8333,391.667 79.5,391C 79.0426,390.586 78.7093,390.086 78.5,389.5C 81.093,384.836 81.093,380.169 78.5,375.5 Z"/></g>
<g><path style="opacity:0.785" fill="#ffffff" d="M 100.5,375.5 C 107.622,373.885 111.955,376.552 113.5,383.5C 109.995,391.421 104.495,393.088 97,388.5C 94.3476,383.039 95.5142,378.706 100.5,375.5 Z M 103.5,378.5 C 107.476,380.426 108.476,383.426 106.5,387.5C 102.76,388.259 101.093,386.759 101.5,383C 101.759,381.213 102.425,379.713 103.5,378.5 Z"/></g>
<g><path style="opacity:0.803" fill="#ffffff" d="M 125.5,380.5 C 127.173,383.142 126.673,385.142 124,386.5C 122.668,384.064 121.501,384.064 120.5,386.5C 121.95,387.85 122.617,389.516 122.5,391.5C 119.193,391.937 116.193,391.27 113.5,389.5C 116.167,385.167 116.167,380.833 113.5,376.5C 118.456,375.506 123.456,375.173 128.5,375.5C 128.5,377.167 128.5,378.833 128.5,380.5C 127.5,380.5 126.5,380.5 125.5,380.5 Z M 125.5,380.5 C 123.669,381.052 122.003,381.052 120.5,380.5C 122.206,377.852 123.872,377.852 125.5,380.5 Z"/></g>
<g><path style="opacity:0.804" fill="#ffffff" d="M 142.5,375.5 C 145.247,375.187 147.914,375.52 150.5,376.5C 149.717,381.447 149.217,386.447 149,391.5C 145.913,395.823 142.413,396.323 138.5,393C 139.292,390.664 140.625,390.164 142.5,391.5C 144.391,385.986 144.391,380.652 142.5,375.5 Z"/></g>
<g><path style="opacity:0.783" fill="#ffffff" d="M 156.5,375.5 C 168.284,374.581 171.617,379.248 166.5,389.5C 159.36,392.8 154.36,390.8 151.5,383.5C 152.179,380.127 153.846,377.46 156.5,375.5 Z M 158.5,379.5 C 160.144,379.286 161.644,379.62 163,380.5C 163.758,382.769 163.591,384.936 162.5,387C 159.678,387.699 158.012,386.532 157.5,383.5C 158.246,382.264 158.579,380.93 158.5,379.5 Z"/></g>
<g><path style="opacity:0.756" fill="#ffffff" d="M 173.5,385.5 C 169.581,382.327 169.581,379.16 173.5,376C 176.5,375.333 179.5,375.333 182.5,376C 184.14,378.776 183.473,380.776 180.5,382C 184.526,383.412 185.36,385.912 183,389.5C 181.077,390.316 179.077,390.983 177,391.5C 174.901,390.713 172.734,390.38 170.5,390.5C 170.5,388.833 170.5,387.167 170.5,385.5C 171.5,385.5 172.5,385.5 173.5,385.5 Z M 179.5,380.5 C 178.325,380.719 177.325,380.386 176.5,379.5C 177.86,378.335 178.86,378.668 179.5,380.5 Z M 173.5,385.5 C 175.429,385.231 177.095,385.731 178.5,387C 176.326,387.877 174.659,387.377 173.5,385.5 Z"/></g>
<g><path style="opacity:0.817" fill="#ffffff" d="M 197.5,386.5 C 198.15,386.196 198.817,385.863 199.5,385.5C 200.466,387.396 200.799,389.396 200.5,391.5C 195.821,391.666 191.155,391.499 186.5,391C 186.043,390.586 185.709,390.086 185.5,389.5C 188.167,385.167 188.167,380.833 185.5,376.5C 190.456,375.506 195.456,375.173 200.5,375.5C 200.5,377.167 200.5,378.833 200.5,380.5C 199.5,380.5 198.5,380.5 197.5,380.5C 197.5,382.5 197.5,384.5 197.5,386.5 Z M 193.5,378.5 C 197.339,378.612 197.339,379.279 193.5,380.5C 192.537,380.03 192.537,379.363 193.5,378.5 Z M 197.5,386.5 C 195.965,387.788 194.299,387.788 192.5,386.5C 194.095,385.566 195.761,385.566 197.5,386.5 Z"/></g>
<g><path style="opacity:0.784" fill="#ffffff" d="M 208.5,376.5 C 211.355,375.197 214.355,375.197 217.5,376.5C 216.187,379.405 215.687,382.405 216,385.5C 216.388,386.428 217.055,387.095 218,387.5C 219.626,386.711 221.126,385.711 222.5,384.5C 223.641,386.421 223.808,388.421 223,390.5C 218.921,391.629 214.755,391.796 210.5,391C 209.833,390.333 209.167,389.667 208.5,389C 209.733,387.302 210.4,385.302 210.5,383C 210.333,381.167 210.167,379.333 210,377.5C 209.617,376.944 209.117,376.611 208.5,376.5 Z"/></g>
<g><path style="opacity:0.775" fill="#ffffff" d="M 222.5,375.5 C 225.518,375.335 228.518,375.502 231.5,376C 230.54,379.73 230.207,383.563 230.5,387.5C 232.451,387.773 233.951,387.107 235,385.5C 235.936,382.208 235.436,379.208 233.5,376.5C 235.833,375.167 238.167,375.167 240.5,376.5C 239.043,380.692 238.043,385.025 237.5,389.5C 233.833,390.833 230.167,390.833 226.5,389.5C 225.375,384.696 224.041,380.03 222.5,375.5 Z"/></g>
<g><path style="opacity:0.815" fill="#ffffff" d="M 242.5,375.5 C 245.247,375.187 247.914,375.52 250.5,376.5C 249.285,381.485 249.285,386.485 250.5,391.5C 247.833,391.5 245.167,391.5 242.5,391.5C 243.704,386.144 243.704,380.811 242.5,375.5 Z"/></g>
<g><path style="opacity:0.758" fill="#ffffff" d="M 261.5,380.5 C 266.032,382.226 267.198,385.226 265,389.5C 262.876,390.227 260.709,390.894 258.5,391.5C 256.591,390.652 254.591,390.318 252.5,390.5C 252.054,387.99 252.72,385.99 254.5,384.5C 251.653,381.365 251.986,378.532 255.5,376C 258.5,375.333 261.5,375.333 264.5,376C 265.38,377.356 265.714,378.856 265.5,380.5C 264.167,380.5 262.833,380.5 261.5,380.5 Z M 261.5,380.5 C 259.645,380.728 258.812,380.061 259,378.5C 259.995,379.066 260.828,379.733 261.5,380.5 Z M 254.5,384.5 C 256.924,385.03 259.257,385.864 261.5,387C 258.386,388.087 256.053,387.254 254.5,384.5 Z"/></g>
<g><path style="opacity:0.805" fill="#ffffff" d="M 278.5,375.5 C 289.612,374.419 293.278,378.919 289.5,389C 284.312,391.349 279.478,390.849 275,387.5C 273.593,382.599 274.76,378.599 278.5,375.5 Z M 282.5,378.5 C 285.332,380.407 286.166,383.073 285,386.5C 281.718,387.911 279.884,386.745 279.5,383C 279.557,380.791 280.557,379.291 282.5,378.5 Z"/></g>
<g><path style="opacity:0.783" fill="#ffffff" d="M 295.5,375.5 C 298.777,375.216 301.943,375.549 305,376.5C 305.825,378.701 305.325,380.534 303.5,382C 306.917,384.321 307.25,386.988 304.5,390C 300.833,390.667 297.167,390.667 293.5,390C 292.62,388.644 292.286,387.144 292.5,385.5C 295.001,386.826 297.668,387.326 300.5,387C 298.351,385.836 296.185,384.67 294,383.5C 293.109,380.502 293.609,377.836 295.5,375.5 Z M 298.5,378.5 C 300.8,378.522 301.967,379.522 302,381.5C 300.271,381.026 299.105,380.026 298.5,378.5 Z"/></g>
<g><path style="opacity:0.794" fill="#ffffff" d="M 307.5,375.5 C 310.247,375.187 312.914,375.52 315.5,376.5C 314.415,379.773 314.248,383.106 315,386.5C 318.659,388.02 320.159,386.687 319.5,382.5C 319.635,380.192 318.969,378.192 317.5,376.5C 320.167,375.167 322.833,375.167 325.5,376.5C 323.986,380.303 322.986,384.303 322.5,388.5C 317.187,392.914 312.687,392.248 309,386.5C 308.68,382.786 308.18,379.119 307.5,375.5 Z"/></g>
<g><path style="opacity:0.815" fill="#ffffff" d="M 326.5,375.5 C 328.857,375.337 331.19,375.503 333.5,376C 334.88,377.925 336.38,379.759 338,381.5C 338.651,379.765 338.485,378.098 337.5,376.5C 339.833,375.167 342.167,375.167 344.5,376.5C 343.023,381.024 342.023,385.69 341.5,390.5C 340.5,391.833 339.5,391.833 338.5,390.5C 336.476,388.31 334.643,385.977 333,383.5C 332.626,385.898 332.626,388.231 333,390.5C 330.482,392.028 328.315,391.694 326.5,389.5C 328.908,384.932 328.908,380.266 326.5,375.5 Z"/></g>
<g><path style="opacity:0.804" fill="#ffffff" d="M 350.5,375.5 C 352.288,375.215 353.955,375.548 355.5,376.5C 358.297,381.235 360.297,386.235 361.5,391.5C 359.076,391.808 356.743,391.474 354.5,390.5C 353.383,385.026 351.716,385.192 349.5,391C 347.888,391.72 346.388,391.554 345,390.5C 346.508,385.484 348.342,380.484 350.5,375.5 Z"/></g>
<g><path style="opacity:0.786" fill="#ffffff" d="M 367.5,375.5 C 370.247,375.187 372.914,375.52 375.5,376.5C 374.62,379.125 375.287,381.458 377.5,383.5C 379.455,381.332 380.121,378.998 379.5,376.5C 384.802,375.337 390.136,375.171 395.5,376C 395,376.5 394.5,377 394,377.5C 393.468,381.909 393.468,386.243 394,390.5C 391.333,391.833 388.667,391.833 386,390.5C 386.931,388.257 387.431,385.757 387.5,383C 387.333,381.5 387.167,380 387,378.5C 386.586,378.043 386.086,377.709 385.5,377.5C 383.172,380.822 381.339,384.489 380,388.5C 378.887,390.329 377.387,391.163 375.5,391C 372.163,386.136 369.496,380.97 367.5,375.5 Z"/></g>
<g><path style="opacity:0.799" fill="#ffffff" d="M 396.5,375.5 C 399.167,375.5 401.833,375.5 404.5,375.5C 403.728,379.452 403.395,383.452 403.5,387.5C 405.995,386.801 408.328,385.801 410.5,384.5C 410.5,386.833 410.5,389.167 410.5,391.5C 405.833,391.5 401.167,391.5 396.5,391.5C 397.775,386.153 397.775,380.82 396.5,375.5 Z"/></g>
<g><path style="opacity:0.803" fill="#ffffff" d="M 411.5,375.5 C 414.167,375.5 416.833,375.5 419.5,375.5C 418.728,379.452 418.395,383.452 418.5,387.5C 420.923,387.576 422.756,386.576 424,384.5C 424.95,385.022 425.784,385.689 426.5,386.5C 428.473,383.754 429.973,380.754 431,377.5C 433.717,374.679 436.05,375.013 438,378.5C 439.551,382.91 441.051,387.243 442.5,391.5C 440.167,391.5 437.833,391.5 435.5,391.5C 434.598,385.055 432.931,384.889 430.5,391C 424.338,391.17 418.005,391.337 411.5,391.5C 412.704,386.144 412.704,380.811 411.5,375.5 Z"/></g>
<g><path style="opacity:0.669" fill="#ffffff" d="M 128.5,385.5 C 131.998,385.478 133.331,386.978 132.5,390C 130.866,390.494 129.199,390.66 127.5,390.5C 127.366,388.708 127.699,387.042 128.5,385.5 Z"/></g>
</svg>